<svg id="eNLfjZEWXlb1" xmlns="http://www.w3.org/2000/svg" xmlns:xlink="http://www.w3.org/1999/xlink" viewBox="0 0 16 16" shape-rendering="geometricPrecision" text-rendering="geometricPrecision"><path d="M15,8c0-3.865993-3.134007-7-7-7-3.655698-.003376-6.698403,2.806895-6.98493,6.451349s2.27962,6.895693,5.89093,7.463651v-4.892h-1.776L5.13,8h1.777v-1.542c0-1.754,1.045-2.724,2.644-2.724.766,0,1.567.137,1.567.137v1.723h-.883c-.87,0-1.14.54-1.14,1.093v1.313h1.941l-.31,2.023h-1.632v4.892C12.495493,14.376356,15.00008,11.443878,15,8Z" transform="matrix(1.142791 0 0 1.142791-1.141866-1.136259)" fill="#1877f2"/></svg>
