<svg id="eOL2w6T5Hvn1" xmlns="http://www.w3.org/2000/svg" xmlns:xlink="http://www.w3.org/1999/xlink" viewBox="7.086 -169.483 1277.149 925" shape-rendering="geometricPrecision" text-rendering="geometricPrecision"><defs><linearGradient id="eOL2w6T5Hvn4-fill" x1="303.81985" y1="204.383872" x2="986.033828" y2="204.383872" spreadMethod="pad" gradientUnits="userSpaceOnUse" gradientTransform="translate(0 0)"><stop id="eOL2w6T5Hvn4-fill-0" offset="0%" stop-color="#f8f6ef"/><stop id="eOL2w6T5Hvn4-fill-1" offset="100%" stop-color="#e7e4d6"/></linearGradient><linearGradient id="eOL2w6T5Hvn9-fill" x1="303.81985" y1="204.383872" x2="986.033828" y2="204.383872" spreadMethod="pad" gradientUnits="userSpaceOnUse" gradientTransform="translate(0 0)"><stop id="eOL2w6T5Hvn9-fill-0" offset="0%" stop-color="#f8f6ef"/><stop id="eOL2w6T5Hvn9-fill-1" offset="100%" stop-color="#e7e4d6"/></linearGradient><linearGradient id="eOL2w6T5Hvn10-fill" x1="303.81985" y1="204.383872" x2="986.033828" y2="204.383872" spreadMethod="pad" gradientUnits="userSpaceOnUse" gradientTransform="translate(0 0)"><stop id="eOL2w6T5Hvn10-fill-0" offset="0%" stop-color="#f8f6ef"/><stop id="eOL2w6T5Hvn10-fill-1" offset="100%" stop-color="#e7e4d6"/></linearGradient><linearGradient id="eOL2w6T5Hvn11-fill" x1="303.81985" y1="204.383872" x2="986.033828" y2="204.383872" spreadMethod="pad" gradientUnits="userSpaceOnUse" gradientTransform="translate(0 0)"><stop id="eOL2w6T5Hvn11-fill-0" offset="0%" stop-color="#f8f6ef"/><stop id="eOL2w6T5Hvn11-fill-1" offset="100%" stop-color="#e7e4d6"/></linearGradient><linearGradient id="eOL2w6T5Hvn12-fill" x1="303.81985" y1="204.383872" x2="986.033828" y2="204.383872" spreadMethod="pad" gradientUnits="userSpaceOnUse" gradientTransform="translate(0 0)"><stop id="eOL2w6T5Hvn12-fill-0" offset="0%" stop-color="#f8f6ef"/><stop id="eOL2w6T5Hvn12-fill-1" offset="100%" stop-color="#e7e4d6"/></linearGradient><linearGradient id="eOL2w6T5Hvn13-fill" x1="303.81985" y1="204.383872" x2="986.033828" y2="204.383872" spreadMethod="pad" gradientUnits="userSpaceOnUse" gradientTransform="translate(0 0)"><stop id="eOL2w6T5Hvn13-fill-0" offset="0%" stop-color="#f8f6ef"/><stop id="eOL2w6T5Hvn13-fill-1" offset="100%" stop-color="#e7e4d6"/></linearGradient><linearGradient id="eOL2w6T5Hvn14-fill" x1="303.81985" y1="204.383872" x2="986.033828" y2="204.383872" spreadMethod="pad" gradientUnits="userSpaceOnUse" gradientTransform="translate(0 0)"><stop id="eOL2w6T5Hvn14-fill-0" offset="0%" stop-color="#f8f6ef"/><stop id="eOL2w6T5Hvn14-fill-1" offset="100%" stop-color="#e7e4d6"/></linearGradient><linearGradient id="eOL2w6T5Hvn15-fill" x1="303.81985" y1="204.383872" x2="986.033828" y2="204.383872" spreadMethod="pad" gradientUnits="userSpaceOnUse" gradientTransform="translate(0 0)"><stop id="eOL2w6T5Hvn15-fill-0" offset="0%" stop-color="#f8f6ef"/><stop id="eOL2w6T5Hvn15-fill-1" offset="100%" stop-color="#e7e4d6"/></linearGradient></defs><path d="M1138.734,931.095h.283m0,0h-.283" transform="translate(0-175)" fill="none"/><path d="M1179.439,7.087c57.543,0,104.627,47.083,104.627,104.626v30.331l-145.36,103.833L643.833,586.771L148.96,242.419v688.676h-37.247C54.17,931.095,7.086,884.013,7.086,826.47v-714.728C7.086,54.198,54.17,7.115,111.713,7.115L643.833,401.64L1179.41,7.115l.029-.028Z" transform="translate(0-175)" fill="#e75a4d"/><path d="M111.713,7.087l532.12,394.525L1179.439,7.087h-1067.726Z" transform="translate(0-175)" fill="url(#eOL2w6T5Hvn4-fill)"/><path d="M148.96,242.419v688.676h989.774v-685.218L643.833,586.771L148.96,242.419Z" transform="translate(0-175)" fill="#e7e4d7"/><path d="M148.96,931.095L643.833,586.771l-2.24-1.586L148.96,923.527v7.568Z" transform="translate(0-175)" fill="#b8b7ae"/><path d="M1138.734,245.877l.283,685.218L643.833,586.771l494.901-340.894Z" transform="translate(0-175)" fill="#b7b6ad"/><path d="M1284.066,142.044l.17,684.51c-2.494,76.082-35.461,103.238-145.219,104.514l-.283-685.219l145.36-103.833-.028.028Z" transform="translate(0-175)" fill="#b2392f"/><path d="M111.713,7.087l532.12,394.525L1179.439,7.087h-1067.726Z" transform="translate(0-175)" fill="url(#eOL2w6T5Hvn9-fill)"/><path d="M111.713,7.087l532.12,394.525L1179.439,7.087h-1067.726Z" transform="translate(0-175)" fill="url(#eOL2w6T5Hvn10-fill)"/><path d="M111.713,7.087l532.12,394.525L1179.439,7.087h-1067.726Z" transform="translate(0-175)" fill="url(#eOL2w6T5Hvn11-fill)"/><path d="M111.713,7.087l532.12,394.525L1179.439,7.087h-1067.726Z" transform="translate(0-175)" fill="url(#eOL2w6T5Hvn12-fill)"/><path d="M111.713,7.087l532.12,394.525L1179.439,7.087h-1067.726Z" transform="translate(0-175)" fill="url(#eOL2w6T5Hvn13-fill)"/><path d="M111.713,7.087l532.12,394.525L1179.439,7.087h-1067.726Z" transform="translate(0-175)" fill="url(#eOL2w6T5Hvn14-fill)"/><path d="M111.713,7.087l532.12,394.525L1179.439,7.087h-1067.726Z" transform="translate(0-175)" fill="url(#eOL2w6T5Hvn15-fill)"/><path d="M111.713,7.087l532.12,394.525L1179.439,7.087h-1067.726Z" transform="translate(0-175)" fill="#f7f5ed"/></svg>
