<svg id="eNuXbLHgm2d1" xmlns="http://www.w3.org/2000/svg" xmlns:xlink="http://www.w3.org/1999/xlink" viewBox="0 0 32 32" shape-rendering="geometricPrecision" text-rendering="geometricPrecision"><defs><radialGradient id="eNuXbLHgm2d2-fill" cx="0" cy="0" r="1" spreadMethod="pad" gradientUnits="userSpaceOnUse" gradientTransform="matrix(14.5 -21 21 14.5 10 21)"><stop id="eNuXbLHgm2d2-fill-0" offset="0%" stop-color="#b13589"/><stop id="eNuXbLHgm2d2-fill-1" offset="79.309%" stop-color="#c62f94"/><stop id="eNuXbLHgm2d2-fill-2" offset="100%" stop-color="#8a3ac8"/></radialGradient><radialGradient id="eNuXbLHgm2d3-fill" cx="0" cy="0" r="1" spreadMethod="pad" gradientUnits="userSpaceOnUse" gradientTransform="matrix(9.49998 -20.5 20.5 9.49998 9 29)"><stop id="eNuXbLHgm2d3-fill-0" offset="0%" stop-color="#e0e8b7"/><stop id="eNuXbLHgm2d3-fill-1" offset="44.4662%" stop-color="#fb8a2e"/><stop id="eNuXbLHgm2d3-fill-2" offset="71.474%" stop-color="#e2425c"/><stop id="eNuXbLHgm2d3-fill-3" offset="100%" stop-color="rgba(226,66,92,0)"/></radialGradient><radialGradient id="eNuXbLHgm2d4-fill" cx="0" cy="0" r="1" spreadMethod="pad" gradientUnits="userSpaceOnUse" gradientTransform="matrix(38.5 -5.5 1.17639 8.23476 -1.499998 1)"><stop id="eNuXbLHgm2d4-fill-0" offset="15.6701%" stop-color="#406adc"/><stop id="eNuXbLHgm2d4-fill-1" offset="46.7799%" stop-color="#6a45be"/><stop id="eNuXbLHgm2d4-fill-2" offset="100%" stop-color="rgba(106,69,190,0)"/></radialGradient></defs><rect width="28" height="28" rx="6" ry="6" transform="matrix(1.142857 0 0 1.142857 0.000002 0.000002)" fill="url(#eNuXbLHgm2d2-fill)"/><rect width="28" height="28" rx="6" ry="6" transform="matrix(1.142857 0 0 1.142857 0.000002 0.000002)" fill="url(#eNuXbLHgm2d3-fill)"/><rect width="28" height="28" rx="6" ry="6" transform="matrix(1.142857 0 0 1.142857 0.000002 0.000002)" fill="url(#eNuXbLHgm2d4-fill)"/><path d="M23,10.5c0,.8284-.6716,1.5-1.5,1.5s-1.5-.6716-1.5-1.5.6716-1.5,1.5-1.5s1.5.67157,1.5,1.5Z" transform="matrix(1.142857 0 0 1.142857-3.071425-1.499998)" fill="#fff"/><path d="M16,21c2.7614,0,5-2.2386,5-5s-2.2386-5-5-5-5,2.2386-5,5s2.2386,5,5,5Zm0-2c1.6569,0,3-1.3431,3-3s-1.3431-3-3-3-3,1.3431-3,3s1.3431,3,3,3Z" transform="matrix(1.142857 0 0 1.142857-2.285712-2.285712)" clip-rule="evenodd" fill="#fff" fill-rule="evenodd"/><path d="M6,15.6c0-3.3603,0-5.0405.65396-6.32394.57524-1.12898,1.49312-2.04686,2.6221-2.6221C10.5595,6,12.2397,6,15.6,6h.8c3.3603,0,5.0405,0,6.3239.65396c1.129.57524,2.0469,1.49312,2.6221,2.6221C26,10.5595,26,12.2397,26,15.6v.8c0,3.3603,0,5.0405-.654,6.3239-.5752,1.129-1.4931,2.0469-2.6221,2.6221C21.4405,26,19.7603,26,16.4,26h-.8c-3.3603,0-5.0405,0-6.32394-.654-1.12898-.5752-2.04686-1.4931-2.6221-2.6221C6,21.4405,6,19.7603,6,16.4v-.8ZM15.6,8h.8c1.7132,0,2.8777.00156,3.7779.0751.8769.07164,1.3253.20149,1.6381.36087.7526.3835,1.3645.99542,1.748,1.74803.1594.3128.2893.7612.3609,1.6381.0735.9002.0751,2.0647.0751,3.7779v.8c0,1.7132-.0016,2.8777-.0751,3.7779-.0716.8769-.2015,1.3253-.3609,1.6381-.3835.7526-.9954,1.3645-1.748,1.748-.3128.1594-.7612.2893-1.6381.3609C19.2777,23.9984,18.1132,24,16.4,24h-.8c-1.7132,0-2.8777-.0016-3.7779-.0751-.8769-.0716-1.3253-.2015-1.6381-.3609-.75261-.3835-1.36453-.9954-1.74803-1.748-.15938-.3128-.28923-.7612-.36087-1.6381C8.00156,19.2777,8,18.1132,8,16.4v-.8c0-1.7132.00156-2.8777.0751-3.7779.07164-.8769.20149-1.3253.36087-1.6381.3835-.75261.99542-1.36453,1.74803-1.74803.3128-.15938.7612-.28923,1.6381-.36087C12.7223,8.00156,13.8868,8,15.6,8Z" transform="matrix(1.142857 0 0 1.142857-2.285712-2.285712)" clip-rule="evenodd" fill="#fff" fill-rule="evenodd"/></svg>
